<svg width="20" height="21" viewBox="0 0 20 21" fill="none" xmlns="http://www.w3.org/2000/svg">
<path d="M7.70994 9.98982C7.52164 9.80152 7.26624 9.69573 6.99994 9.69573C6.73364 9.69573 6.47825 9.80152 6.28994 9.98982C6.10164 10.1781 5.99585 10.4335 5.99585 10.6998C5.99585 10.9661 6.10164 11.2215 6.28994 11.4098L9.28994 14.4098C9.38338 14.5025 9.4942 14.5758 9.61604 14.6256C9.73787 14.6754 9.86834 14.7006 9.99994 14.6998C10.1368 14.6955 10.2714 14.6631 10.3952 14.6046C10.5191 14.5461 10.6296 14.4628 10.7199 14.3598L17.7199 6.35982C17.8816 6.15915 17.9595 5.90383 17.9375 5.6471C17.9155 5.39038 17.7952 5.15205 17.6018 4.98183C17.4083 4.81161 17.1567 4.72262 16.8992 4.73342C16.6418 4.74423 16.3984 4.85399 16.2199 5.03982L9.99994 12.2398L7.70994 9.98982Z" fill="#13A77B"/>
<path d="M18.9999 9.70007C18.7347 9.70007 18.4804 9.80543 18.2928 9.99297C18.1053 10.1805 17.9999 10.4349 17.9999 10.7001C17.9999 12.8218 17.1571 14.8566 15.6568 16.3569C14.1565 17.8572 12.1217 18.7001 9.99993 18.7001C8.42002 18.6994 6.8757 18.2308 5.5617 17.3536C4.2477 16.4764 3.22286 15.2297 2.61642 13.7708C2.00997 12.312 1.84908 10.7062 2.15402 9.15596C2.45897 7.60576 3.2161 6.18056 4.32993 5.06007C5.07064 4.30946 5.95361 3.71411 6.92719 3.30889C7.90077 2.90366 8.94539 2.69668 9.99993 2.70007C10.6394 2.70408 11.2765 2.77785 11.8999 2.92007C12.0304 2.96043 12.1677 2.97363 12.3035 2.95887C12.4393 2.94411 12.5706 2.9017 12.6893 2.83425C12.8081 2.7668 12.9117 2.67575 12.994 2.5667C13.0762 2.45765 13.1352 2.33291 13.1673 2.20019C13.1995 2.06746 13.2041 1.92956 13.1809 1.79497C13.1577 1.66039 13.1072 1.53198 13.0325 1.41766C12.9578 1.30335 12.8605 1.20554 12.7465 1.13028C12.6326 1.05502 12.5044 1.0039 12.3699 0.980073C11.5931 0.797316 10.798 0.703381 9.99993 0.700073C8.02427 0.710337 6.09592 1.30559 4.45823 2.41073C2.82054 3.51586 1.54691 5.08134 0.798054 6.9096C0.0492024 8.73787 -0.141306 10.747 0.25057 12.6834C0.642446 14.6199 1.59914 16.3968 2.99993 17.7901C4.85663 19.6476 7.37359 20.6939 9.99993 20.7001C12.6521 20.7001 15.1956 19.6465 17.071 17.7711C18.9464 15.8958 19.9999 13.3522 19.9999 10.7001C19.9999 10.4349 19.8946 10.1805 19.707 9.99297C19.5195 9.80543 19.2652 9.70007 18.9999 9.70007Z" fill="#13A77B"/>
</svg>
