<svg width="164" height="48" viewBox="0 0 164 48" fill="none" xmlns="http://www.w3.org/2000/svg">
<path d="M65.7028 44H64.0426V37.2812H56.5231V44H54.8629V29.7227H56.5231V35.7969H64.0426V29.7227H65.7028V44ZM80.8098 29.7227V38.9609C80.8098 40.5885 80.3183 41.8678 79.3352 42.7988C78.3521 43.7298 77.0012 44.1953 75.2824 44.1953C73.5637 44.1953 72.2323 43.7266 71.2883 42.7891C70.3508 41.8516 69.8821 40.5625 69.8821 38.9219V29.7227H71.5422V39.0391C71.5422 40.2305 71.8677 41.1452 72.5188 41.7832C73.1698 42.4212 74.1268 42.7402 75.3899 42.7402C76.5943 42.7402 77.522 42.4212 78.1731 41.7832C78.8241 41.1387 79.1496 40.2174 79.1496 39.0195V29.7227H80.8098ZM84.9989 29.7227H89.0321C90.9266 29.7227 92.297 30.0059 93.1434 30.5723C93.9897 31.1387 94.4129 32.0339 94.4129 33.2578C94.4129 34.1042 94.1753 34.804 93.7 35.3574C93.2313 35.9043 92.5444 36.2591 91.6395 36.4219V36.5195C93.8074 36.8906 94.8914 38.0299 94.8914 39.9375C94.8914 41.2135 94.4585 42.2096 93.5926 42.9258C92.7332 43.6419 91.5288 44 89.9793 44H84.9989V29.7227ZM86.659 35.8359H89.3934C90.5653 35.8359 91.4084 35.6536 91.9227 35.2891C92.437 34.918 92.6942 34.2962 92.6942 33.4238C92.6942 32.623 92.4077 32.0469 91.8348 31.6953C91.2619 31.3372 90.3504 31.1582 89.1004 31.1582H86.659V35.8359ZM86.659 37.2422V42.584H89.6375C90.7899 42.584 91.6558 42.3626 92.2352 41.9199C92.8211 41.4707 93.1141 40.7708 93.1141 39.8203C93.1141 38.9349 92.8146 38.2839 92.2156 37.8672C91.6232 37.4505 90.7183 37.2422 89.5008 37.2422H86.659Z" fill="#BFBFBF"/>
<path d="M62.2164 21L58.7125 8.66016H58.6071C58.7711 10.7617 58.8531 12.3945 58.8531 13.5586V21H54.7516V3.86719H60.9156L64.4899 16.0312H64.5836L68.0875 3.86719H74.2633V21H70.0094V13.4883C70.0094 13.0977 70.0133 12.6641 70.0211 12.1875C70.0367 11.7109 70.0914 10.543 70.1852 8.68359H70.0797L66.6227 21H62.2164ZM89.0866 21H78.9147V3.86719H89.0866V7.58203H83.5436V10.2773H88.6764V13.9922H83.5436V17.2266H89.0866V21ZM109.359 21H103.289L97.031 8.92969H96.9255C97.0739 10.8281 97.1481 12.2773 97.1481 13.2773V21H93.0466V3.86719H99.0935L105.328 15.7734H105.398C105.289 14.0469 105.234 12.6602 105.234 11.6133V3.86719H109.359V21ZM121.581 21H116.952V7.65234H112.768V3.86719H125.753V7.65234H121.581V21ZM145.193 12.4102C145.193 15.293 144.486 17.4844 143.072 18.9844C141.658 20.4844 139.588 21.2344 136.861 21.2344C134.174 21.2344 132.111 20.4805 130.674 18.9727C129.244 17.4648 128.529 15.2695 128.529 12.3867C128.529 9.53516 129.24 7.35938 130.662 5.85938C132.092 4.35156 134.166 3.59766 136.885 3.59766C139.611 3.59766 141.678 4.34375 143.084 5.83594C144.49 7.32812 145.193 9.51953 145.193 12.4102ZM133.404 12.4102C133.404 15.7227 134.556 17.3789 136.861 17.3789C138.033 17.3789 138.9 16.9766 139.463 16.1719C140.033 15.3672 140.318 14.1133 140.318 12.4102C140.318 10.6992 140.029 9.4375 139.451 8.625C138.881 7.80469 138.025 7.39453 136.885 7.39453C134.564 7.39453 133.404 9.06641 133.404 12.4102ZM153.876 14.7656V21H149.247V3.86719H154.86C159.516 3.86719 161.845 5.55469 161.845 8.92969C161.845 10.9141 160.876 12.4492 158.938 13.5352L163.93 21H158.68L155.048 14.7656H153.876ZM153.876 11.2852H154.743C156.36 11.2852 157.169 10.5703 157.169 9.14062C157.169 7.96094 156.376 7.37109 154.79 7.37109H153.876V11.2852Z" fill="#303030"/>
<path fill-rule="evenodd" clip-rule="evenodd" d="M43.4572 1.4439C45.3824 3.3691 45.3824 6.49046 43.4572 8.41565C41.6497 10.2232 38.7876 10.3337 36.8512 8.74695L29.2092 16.3889C32.571 20.1584 32.5357 25.8898 29.1032 29.618L32.7034 33.2182C34.1389 32.2671 36.0921 32.4239 37.3569 33.6888C38.8008 35.1327 38.8008 37.4737 37.3569 38.9176C35.913 40.3615 33.572 40.3615 32.1281 38.9176C30.7428 37.5322 30.6866 35.3211 31.9596 33.8687L28.4005 30.3097C24.5289 33.7623 18.5876 33.6314 14.873 29.9167C13.1632 28.207 12.2127 26.0254 12.0214 23.7911H4.8804C4.65189 24.9161 3.65726 25.7627 2.46489 25.7627C1.10357 25.7627 0 24.6591 0 23.2978C0 21.9365 1.10357 20.8329 2.46489 20.8329C3.6575 20.8329 4.65229 21.6799 4.88054 22.8052H11.9862C12.0211 20.3287 12.9834 17.8629 14.873 15.9732C18.6252 12.221 24.6494 12.1253 28.5175 15.6863L36.154 8.04975C34.5675 6.11333 34.678 3.25142 36.4855 1.4439C38.4107 -0.481299 41.532 -0.481299 43.4572 1.4439Z" fill="#C4C4C4"/>
</svg>
